<svg width="123" height="124" viewBox="0 0 123 124" fill="none" xmlns="http://www.w3.org/2000/svg">
<g opacity="0.84">
<path d="M41.092 49.3789C57.0652 41.7368 69.566 28.7684 76.7424 12.5579C72.1125 7.69479 66.0936 4.22111 59.6117 2.1369L56.1392 0.979004C55.9077 1.44216 55.6762 2.13693 55.6762 2.60008C50.1203 18.3474 38.777 31.0842 23.4983 38.2632C12.8495 43.3579 4.9786 52.6211 1.27467 63.7368L0.117188 67.2105C0.58018 67.4421 1.27468 67.6736 1.73767 67.6736C6.1361 69.2947 10.5345 71.3789 14.7014 73.9263C20.4888 63.5053 29.7487 54.7052 41.092 49.3789Z" fill="#49BFF7"/>
<path opacity="0.5" d="M108.225 50.306C99.6599 63.2744 87.8537 73.6955 73.2694 80.6428C61.4631 86.2007 52.4348 96.6218 48.2678 109.127L47.1104 113.064C51.5088 117.001 56.8332 120.011 62.6206 121.864L66.093 123.022C66.3245 122.559 66.556 121.864 66.556 121.401C72.1119 105.653 83.4552 92.9165 98.734 85.7376C109.383 80.6429 117.485 71.3797 120.958 60.264L122.115 56.7903C117.254 55.4008 112.624 53.085 108.225 50.306Z" fill="#49BFF7"/>
<path opacity="0.7" d="M37.8515 101.02C43.6389 87.1252 54.2877 75.7778 67.9459 69.2936C80.4467 63.2725 90.8641 54.0094 98.0404 42.662C92.716 37.5673 88.3176 31.7778 85.0766 24.8304C76.5113 40.5778 63.0845 53.3146 46.6483 61.1883C37.157 65.5883 29.5176 73.2304 24.8877 82.4936C29.9806 87.3567 34.1475 93.3777 37.3885 100.094C37.3885 100.094 37.62 100.557 37.8515 101.02Z" fill="#49BFF7"/>
</g>
</svg>
